<svg width="93" height="46" viewBox="0 0 93 46" fill="none" xmlns="http://www.w3.org/2000/svg">
<path d="M0.148438 22.8871C0.148438 22.1529 0.665254 21.4753 1.35434 21.2494C3.19192 20.6282 4.74237 18.7082 4.74237 15.7153V6.56706C4.74237 1.71059 7.32645 0.12941 10.2551 0.12941H11.9778C12.8392 0.12941 13.5283 0.807057 13.5283 1.65412C13.5283 2.50117 12.8392 3.17882 11.9778 3.17882H10.6571C8.13039 3.17882 8.07297 5.49412 8.07297 7.47059V16.3365C8.07297 21.3059 4.68494 22.7741 3.47904 22.9435V23.0565C4.68494 23.2259 8.07297 24.6376 8.07297 29.6635V38.5294C8.07297 40.5059 8.13039 42.8212 10.6571 42.8212H11.9778C12.8392 42.8212 13.5283 43.4988 13.5283 44.3459C13.5283 45.1929 12.8392 45.8706 11.9778 45.8706H10.2551C7.32645 45.8706 4.74237 44.2329 4.74237 39.4329V30.2282C4.74237 27.2918 3.19192 25.3153 1.41177 24.6941C0.665255 24.4682 0.148438 23.8471 0.148438 23.1129V22.8871Z" fill="#8C88A3"/>
<path d="M92.4291 23.1129C92.4291 23.8471 91.9123 24.5247 91.2232 24.7506C89.3857 25.3718 87.8926 27.2918 87.8926 30.2847V39.4329C87.8926 44.2894 85.2511 45.8706 82.3225 45.8706H80.5998C79.7384 45.8706 79.0493 45.1929 79.0493 44.3459C79.0493 43.4988 79.7384 42.8212 80.5998 42.8212H81.9205C84.4472 42.8212 84.5046 40.5059 84.5046 38.5294V29.6071C84.5046 24.6376 87.8926 23.1694 89.0985 23V22.8871C87.8926 22.7176 84.5046 21.3059 84.5046 16.28V7.47059C84.5046 5.49412 84.4472 3.17882 81.9205 3.17882H80.5998C79.7384 3.17882 79.0493 2.50117 79.0493 1.65412C79.0493 0.807057 79.7384 0.12941 80.5998 0.12941H82.3225C85.2511 0.12941 87.8926 1.71059 87.8926 6.56706V15.7153C87.8926 18.6518 89.4431 20.6282 91.2232 21.2494C91.9123 21.4753 92.4291 22.1529 92.4291 22.8871V23.1129Z" fill="#8C88A3"/>
<path d="M78.0156 28.4212C78.0156 24.2423 76.6949 20.6847 74.1108 17.7482C71.4693 14.8118 68.0812 13.287 63.8319 13.287C59.4102 13.287 55.7351 14.8682 52.8064 17.9741C49.8778 21.08 48.3848 24.92 48.3848 29.4376C48.3848 33.9553 49.9352 37.7388 53.0935 40.9012C56.1944 44.007 60.0419 45.5882 64.5209 45.5882C68.8852 45.5882 72.7326 44.3459 76.178 41.8612L74.0534 37.5694C71.3544 39.3765 67.909 40.3929 64.6358 40.3365C64.6358 40.3365 60.9607 40.3929 57.6301 37.9082C55.3905 36.2706 54.7014 34.6329 54.1272 33.1082C54.0123 32.8259 54.0123 32.7129 53.8401 32.1482C53.0935 29.72 54.0123 26.0494 54.0123 26.0494C54.0123 26.0494 54.7014 23.2259 57.2855 20.7976C58.9508 19.2729 61.0181 18.5388 63.4873 18.5388C63.4873 18.5388 67.2199 18.2565 69.9188 21.2494C71.5841 23.1129 72.5603 24.92 72.5603 27.0094L62.9131 27.1788L58.4914 31.6965L78.073 31.527V28.4212H78.0156Z" fill="#3F3A60"/>
<path d="M48.4419 29.3812C48.4419 28.5906 48.2696 26.9529 48.2122 26.5012C47.6954 23.2824 46.2023 20.4588 43.7905 18.0306C40.6896 14.9247 36.8422 13.3435 32.3631 13.3435C28.1712 13.3435 24.6109 14.6988 21.6248 17.4659V4.19529L16.3418 0.524704V29.4941V29.6635C16.3418 34.1247 18.2942 38.4165 21.6248 41.3529C24.6109 44.12 28.1712 45.4753 32.3631 45.4753C36.8422 45.4753 40.6896 43.8941 43.7905 40.7882C46.834 37.6824 48.3845 33.8988 48.4419 29.3812ZM40.0005 37.0612C38.0481 39.2071 35.4066 40.1671 32.3057 40.1671C29.3196 40.1671 26.7356 39.0941 24.6683 37.0612C22.601 34.9718 21.5674 32.4306 21.5674 29.3812C21.5674 26.3882 22.601 23.7906 24.6683 21.7576C26.7356 19.6682 29.2622 18.6518 32.3057 18.6518C35.3492 18.6518 37.9333 19.7247 40.0005 21.7576C41.6658 23.3953 42.642 25.3718 42.9866 27.6306C42.9866 27.6306 42.9866 27.6306 42.9866 27.6871C43.1014 28.3082 43.1014 29.2118 43.1014 29.4377C43.1014 29.3812 43.1014 33.6165 40.0005 37.0612Z" fill="#3F3A60"/>
</svg>
